<?xml version="1.0" encoding="UTF-8" standalone="no"?>
<!DOCTYPE svg PUBLIC "-//W3C//DTD SVG 20010904//EN"
              "http://www.w3.org/TR/2001/REC-SVG-20010904/DTD/svg10.dtd">

<svg xmlns="http://www.w3.org/2000/svg"
     width="72.7513mm" height="62.963mm"
     viewBox="0 0 275 238">
  <path
    stroke="none"
    stroke-width="1"
    d="M 0.00,0.00
           C 0.00,0.00 181.00,0.00 181.00,0.00
             181.00,0.00 191.00,0.91 191.00,0.91
             205.76,1.94 217.41,3.51 230.00,12.22
             257.39,31.17 264.74,73.92 245.25,101.00
             235.10,115.12 221.33,121.73 205.00,126.26
             205.00,126.26 189.00,130.00 189.00,130.00
             216.22,141.79 231.85,170.03 247.05,194.00
             247.05,194.00 275.00,238.00 275.00,238.00
             275.00,238.00 244.00,238.00 244.00,238.00
             244.00,238.00 236.33,236.98 236.33,236.98
             236.33,236.98 222.66,217.00 222.66,217.00
             222.66,217.00 196.98,177.00 196.98,177.00
             196.98,177.00 176.00,149.00 176.00,149.00
             177.33,155.60 178.83,162.23 178.99,169.00
             179.15,176.13 177.54,185.22 175.33,192.00
             173.33,198.13 170.50,204.72 166.79,210.00
             144.45,241.87 99.16,238.00 65.00,238.00
             65.00,238.00 36.00,238.00 36.00,238.00
             36.00,238.00 0.00,238.00 0.00,238.00
             0.00,238.00 0.00,0.00 0.00,0.00 Z
           M 145.00,105.00
           C 164.63,105.00 190.18,107.86 207.00,96.64
             211.12,93.89 215.34,90.18 218.03,86.00
             228.02,70.48 226.02,45.76 210.00,35.10
             194.13,24.55 175.07,26.00 157.00,26.00
             160.38,33.03 163.23,37.10 165.56,45.00
             170.03,60.09 167.67,76.82 158.90,90.00
             155.26,95.47 149.55,100.19 145.00,105.00 Z
           M 66.00,27.00
           C 66.00,27.00 31.00,27.00 31.00,27.00
             31.00,27.00 31.00,100.00 31.00,100.00
             31.00,100.00 66.00,100.00 66.00,100.00
             66.00,100.00 66.00,27.00 66.00,27.00 Z
           M 97.00,100.00
           C 109.00,98.41 120.71,96.73 129.53,87.56
             140.44,76.23 139.78,48.75 127.96,38.21
             120.68,31.71 106.58,28.78 97.00,28.00
             97.00,28.00 97.00,100.00 97.00,100.00 Z
           M 66.00,128.00
           C 66.00,128.00 31.00,128.00 31.00,128.00
             31.00,128.00 31.00,211.00 31.00,211.00
             31.00,211.00 66.00,211.00 66.00,211.00
             66.00,211.00 66.00,128.00 66.00,128.00 Z
           M 97.00,211.00
           C 111.30,210.69 126.64,207.74 136.90,196.96
             153.37,179.65 149.47,147.82 129.00,135.48
             120.45,130.32 106.89,132.00 97.00,132.00
             97.00,132.00 97.00,211.00 97.00,211.00 Z" />
</svg>
